PathFileType	4	(X/Y/Z)	Patient4_TMGait_0pt8_01_left_26.trc.trc
DataRate	CameraRate	NumFrames	NumMarkers	Units	OrigDataRate	OrigDataStartFrame	OrigNumFrames
86.419753086420	86.419753086420	5	33	mm	86.419753086420	53	       141
Frame#	Time	Sacral			L.Shoulder			Chest			R.Shoulder			Neck			R.ASIS			L.ASIS			R.Thigh.Superior			R.Thigh.Lateral			R.Thigh.Inferior			R.Patella			L.Thigh.Superior			L.Thigh.Lateral			L.Thigh.Inferior			L.Patella			L.Shank.Superior			L.Shank.Lateral			L.Shank.Inferior			R.Shank.Superior			R.Shank.Lateral			R.Shank.Inferior			R.Heel			R.Midfoot.Superior			R.Midfoot.Lateral			R.Toe			L.Heel			L.Midfoot.Lateral			L.Midfoot.Superior			L.Toe			L.Elbow			L.Wrist			R.Elbow			R.Wrist			
		X1	Y1	Z1	X2	Y2	Z2	X3	Y3	Z3	X4	Y4	Z4	X5	Y5	Z5	X6	Y6	Z6	X7	Y7	Z7	X8	Y8	Z8	X9	Y9	Z9	X10	Y10	Z10	X11	Y11	Z11	X12	Y12	Z12	X13	Y13	Z13	X14	Y14	Z14	X15	Y15	Z15	X16	Y16	Z16	X17	Y17	Z17	X18	Y18	Z18	X19	Y19	Z19	X20	Y20	Z20	X21	Y21	Z21	X22	Y22	Z22	X23	Y23	Z23	X24	Y24	Z24	X25	Y25	Z25	X26	Y26	Z26	X27	Y27	Z27	X28	Y28	Z28	X29	Y29	Z29	X30	Y30	Z30	X31	Y31	Z31	X32	Y32	Z32	X33	Y33	Z33	

53	29.071714285714	884.791063483979	1009.063430400870	409.046578899484	1057.778511123300	1431.754477464046	223.180481295648	1156.908019315621	1370.465697473017	389.883950727123	1066.890430207025	1447.461348863411	559.572914041293	1037.584237411014	1499.478819334620	376.944846187616	1108.653265465647	945.635677009735	530.946988254412	1102.262351706647	969.495863877321	257.766192786604	1196.570982531938	784.487725115689	520.821078326067	1154.101986007453	663.842446597493	598.591979197356	1255.912717505983	627.380739561392	533.751670514632	1276.836436518658	515.269497307749	561.566820569077	1141.305674634379	756.294679327500	283.935152199373	1045.079205212091	642.238632887071	224.918950418582	1130.632324701039	562.930480235082	282.575139753380	1128.419633101760	494.651225068182	290.647992589061	1103.462282702219	422.898090411095	288.644327892644	1009.637249012298	304.660943577293	256.207710389471	1077.518084767673	198.024856708051	322.387128482689	1204.431502175312	436.663120659933	558.394830763627	1078.541403674731	392.141598540194	604.006045457444	1075.162712200026	282.925594040734	553.789317720357	881.956410984566	203.881019455522	499.979077688863	1049.271243068096	169.055411872966	567.176757686006	936.355897343900	155.648796285086	584.510769707159	1121.030211902165	66.786538033090	608.413801969654	960.727318183728	39.817010670084	385.525844441592	1030.123417008649	34.711006900553	300.612305591456	1113.473511831516	99.110936662019	319.382468728159	1240.516583349251	49.432131729991	288.377320200637	1105.422637500677	1087.204485377737	94.589570601245	1227.970932081134	859.367522476058	82.425469563913	1039.350386902362	1102.190883769582	682.065031340899	1256.974773408991	972.089540590483	649.821708952743	
54	29.083285714286	883.290587773916	1008.789467037141	408.543224690102	1057.093679377399	1431.197027000891	222.374393062165	1155.445788214568	1370.325892260976	389.624815541639	1064.685630461379	1447.498899429218	558.819421961301	1036.377174407820	1499.309631330685	375.890356044684	1107.174398281881	945.782367828328	530.650784490586	1101.005719614397	969.702584498104	257.458637672787	1196.547308183931	787.115270120900	520.000561136775	1156.874003407818	666.148560055642	598.652095032595	1258.454407493765	630.961599890984	532.850798643176	1282.117682332539	520.118709882404	561.255026733994	1138.088455691958	755.493297895771	283.691345342541	1040.329045724605	642.333667396741	224.744109117796	1124.727932200906	562.069870038422	282.464374104790	1121.609471025774	493.962726405118	290.781900037632	1096.375533126751	422.422140479324	288.696910360019	1001.829650710458	304.766944639548	256.304236083012	1068.971557788233	197.730968371260	322.507383653526	1212.693983704869	439.422901498018	559.277148150048	1089.353607444936	389.582721894208	606.179875033257	1090.646337520979	279.824007051499	556.810258459899	901.063653330958	191.816843967196	504.869179308179	1070.081044201589	164.548860116057	571.443512959178	957.872983624902	146.623411501721	589.539528561319	1146.227651806601	65.649386837361	613.188000640737	951.378245856675	39.791801385561	385.553119443951	1020.818208126399	34.706299589036	300.642833376333	1104.195185759068	99.054855787388	319.446639800430	1231.230205587613	49.367874855938	288.375660882879	1116.413388459652	1089.751533450299	92.082902990859	1247.682091472457	866.945686993109	78.290150539920	1026.046739973748	1103.411170767353	681.366022922435	1232.740854929885	953.900114903155	655.170380663020	
55	29.094857142857	881.835778183909	1008.483984245780	408.191784611462	1056.428782691909	1430.653019637070	221.743185514265	1154.041833709520	1370.136491737882	389.499577418309	1062.610007805751	1447.493568803017	558.219738008539	1035.199900897768	1499.088150649360	375.024446380008	1105.769052229556	945.836691020597	530.452825950890	1099.773456353370	969.851850106174	257.224842846410	1196.199703296040	789.292367205859	519.104412832645	1159.122074194236	668.091669502164	598.580434368793	1260.282853964383	633.968241363442	531.715296598687	1286.590794446445	524.583058043787	560.657935882231	1134.761436452343	754.580007131322	283.409931550129	1035.447899894037	642.387114218974	224.707407101526	1118.665368524210	561.168504567586	282.464441104704	1114.642100282563	493.252190848621	291.058365830397	1089.153698211763	421.945226849272	288.856544138174	993.936186113594	304.852119432483	256.452602202504	1060.344480959377	197.430740967618	322.694354113478	1220.307674760257	441.912595687118	559.989189564690	1099.943032802061	386.665789751781	608.361550256618	1106.130882105843	276.562834278379	559.846113049270	920.731356758069	179.395015278902	510.008046309352	1091.203460511540	160.025046023418	575.735139712191	979.963478464335	137.506646327948	594.782174249060	1171.801011307218	64.886416551667	618.030006948198	942.022718767888	39.744383467380	385.592478960391	1011.491167653769	34.694393898366	300.676106997709	1094.890251767590	99.004982369195	319.529329404799	1221.927083847821	49.330763838333	288.375592543378	1126.557609014521	1092.559080883777	89.982234563857	1266.543907196827	875.221153703622	74.702228010657	1013.512647945231	1104.776269088791	680.576386769817	1207.284116754149	936.692109053450	660.655154479911	
56	29.106428571429	880.444803852278	1008.166236881446	407.971763205981	1055.815889302243	1430.144554154085	221.302865939799	1152.716657462037	1369.904033902615	389.527669775052	1060.669369536596	1447.439613775676	557.794656462296	1034.066130362079	1498.823701120625	374.365287425697	1104.435601523232	945.799305866099	530.353032106539	1098.585259378116	969.941135513580	257.066920389263	1195.545506000754	791.006755582915	518.147053697623	1160.815038894016	669.643970378638	598.397156710597	1261.417021471930	636.384506613918	530.424552107797	1290.250923719617	528.624499977370	559.828838852070	1131.333170513313	753.563865643026	283.123590728331	1030.438645020358	642.410186007990	224.801557471311	1112.435072470160	560.231631348558	282.577980875929	1107.511833000805	492.524235470111	291.470890128302	1081.786317370890	421.476399471264	289.119213818378	985.949217052574	304.921624645738	256.646683722858	1051.634365272972	197.131254401872	322.943921992410	1227.251560372423	444.135003829944	560.532129489265	1110.292491564121	383.476353511685	610.521370520470	1121.535014854143	273.275225237008	562.817484727210	940.884578629386	166.901788579716	515.271767659065	1112.504878883169	155.673158625214	579.914895219018	1002.511664638022	128.531842174895	600.083299841933	1197.543220740851	64.661279064380	622.726385507358	932.664978318390	39.676007055783	385.640619388302	1002.142136233511	34.675429727964	300.710745272692	1085.560029846553	98.962629075815	319.627952661253	1212.605320894462	49.320487385240	288.379427564613	1135.742774761083	1095.532775194729	88.264195809384	1284.497406708859	884.156010010544	71.677032526582	1001.788633601994	1106.219700216761	679.731597279600	1180.732563653962	920.726484404727	666.198046281466	
57	29.118000000000	879.137310057408	1007.847270294427	407.860218612980	1055.277343157094	1429.685141810184	221.067004954093	1151.487206701264	1369.631101213334	389.722635250506	1058.870560230520	1447.323721722291	557.561928844436	1032.988489513803	1498.520997411711	373.929215315694	1103.171899540885	945.668664473365	530.348600448908	1097.460462454400	969.962402938350	256.987906443332	1194.608054594806	792.252876328914	517.156949570573	1161.927627014945	670.779941301080	598.131574391157	1261.889178652613	638.204593057159	529.070255705998	1293.098614604070	532.209984399209	558.829361957857	1127.828794410645	752.455605638257	282.869145466708	1025.319614324596	642.411593200471	225.014529718395	1106.043470930113	559.264743852000	282.807844557668	1100.230525013080	491.784187727854	292.007739740538	1074.275682597614	421.023102498933	289.478097445877	977.871646113059	304.980952204175	256.877773229109	1042.844835504434	196.838627041648	323.251058737558	1233.514477063439	446.090359702496	560.908522586222	1120.380883926642	380.088530236832	612.630279080329	1136.769911467105	270.073552666109	565.648641489620	961.421869767218	154.588025946530	520.538793758476	1133.844588584212	151.651208620640	583.850433088510	1025.387570548570	119.892060525545	605.289740211182	1223.251786988114	65.093672605282	627.064903313290	923.307984255107	39.589839216285	385.695011169586	992.772391459120	34.650350118173	300.746221541038	1076.206855030817	98.927519801622	319.741067937585	1203.263774443704	49.334823200804	288.390622421293	1143.892530314659	1098.566582521254	86.899700992156	1301.498291060227	893.704676174823	69.222230964246	990.890571492993	1107.685022043032	678.872472392871	1153.264128206313	906.246114163123	671.716818255914	
